<?xml version="1.0" encoding="UTF-8"?>
<svg xmlns="http://www.w3.org/2000/svg" width="1000" height="1500" viewBox="0 0 1000 1500" role="img" aria-label="Cute Homework Tracker Printable Pinterest preview">
  <defs>
    <linearGradient id="bg" x1="0" x2="1" y1="0" y2="1">
      <stop offset="0" stop-color="#E8E2FF"/>
      <stop offset="0.55" stop-color="#FFF8EE"/>
      <stop offset="1" stop-color="#DFF7EE"/>
    </linearGradient>
    <filter id="shadow" x="-20%" y="-20%" width="140%" height="140%">
      <feDropShadow dx="0" dy="18" stdDeviation="22" flood-color="#7d6b7a" flood-opacity="0.18"/>
    </filter>
  </defs>
  <rect width="1000" height="1500" fill="url(#bg)"/>
  <circle cx="120" cy="160" r="54" fill="#ffffff" opacity="0.62"/>
  <circle cx="880" cy="230" r="76" fill="#ffffff" opacity="0.42"/>
  <text x="118" y="220" font-family="Arial, sans-serif" font-size="46" font-weight="800" fill="#0f8f8c">✦ ♡ ✧</text>
  <text x="500" y="225" text-anchor="middle" font-family="Arial, sans-serif" font-size="78" font-weight="900" fill="#172033">Cute Homework Tracker</text>
  <text x="500" y="305" text-anchor="middle" font-family="Arial, sans-serif" font-size="38" font-weight="700" fill="#536173">Free printable student template</text>
  <g filter="url(#shadow)">
    <rect x="150" y="430" width="700" height="780" rx="34" fill="#fffefa" stroke="#172033" stroke-width="8"/>
    <rect x="190" y="480" width="620" height="68" rx="18" fill="#E8E2FF"/>
    <text x="500" y="526" text-anchor="middle" font-family="Arial, sans-serif" font-size="38" font-weight="900" fill="#172033">Cute Homework Tracker Printable</text>
    <line x1="210" y1="600" x2="450" y2="600" stroke="#172033" stroke-width="4"/>
    <line x1="550" y1="600" x2="790" y2="600" stroke="#172033" stroke-width="4"/>
    <g fill="none" stroke="#172033" stroke-width="4">
      <rect x="210" y="660" width="580" height="58" rx="8" fill="#f9fbff"/>
      <rect x="210" y="736" width="580" height="58" rx="8" fill="#ffffff"/>
      <rect x="210" y="812" width="580" height="58" rx="8" fill="#f9fbff"/>
      <rect x="210" y="888" width="580" height="58" rx="8" fill="#ffffff"/>
      <rect x="210" y="964" width="580" height="58" rx="8" fill="#f9fbff"/>
      <rect x="210" y="1040" width="580" height="58" rx="8" fill="#ffffff"/>
      <line x1="210" y1="660" x2="210" y2="1098"/>
      <line x1="326" y1="660" x2="326" y2="1098"/>
      <line x1="442" y1="660" x2="442" y2="1098"/>
      <line x1="558" y1="660" x2="558" y2="1098"/>
      <line x1="674" y1="660" x2="674" y2="1098"/>
    </g>
    <text x="230" y="1138" font-family="Arial, sans-serif" font-size="30" font-weight="800" fill="#0f8f8c">print • plan • study</text>
  </g>
  <text x="500" y="1340" text-anchor="middle" font-family="Arial, sans-serif" font-size="44" font-weight="900" fill="#172033">PrintableStudy.com</text>
  <text x="500" y="1395" text-anchor="middle" font-family="Arial, sans-serif" font-size="30" font-weight="700" fill="#536173">Cute &amp; Aesthetic Student Printables</text>
</svg>